<svg width="230" height="257" viewBox="0 0 230 257" fill="none" xmlns="http://www.w3.org/2000/svg">
<g style="mix-blend-mode:hard-light">
<path d="M220.833 227.143C220.833 230.613 218.007 233.452 214.524 233.452H151.429V246.071C151.429 248.232 151.212 250.342 150.798 252.381H214.524C228.455 252.381 239.762 241.074 239.762 227.143V98.7819C239.762 92.0938 237.099 85.6707 232.367 80.9386L158.811 7.39476C158.621 7.20611 158.408 7.04244 158.196 6.87991C158.038 6.75965 157.883 6.64014 157.738 6.51143C156.842 5.70381 155.959 4.90881 154.975 4.24C154.655 4.02472 154.307 3.85487 153.959 3.68564C153.757 3.58709 153.555 3.48879 153.359 3.3819C153.149 3.26316 152.939 3.14176 152.728 3.02012C152.044 2.62438 151.358 2.22701 150.634 1.91809C148.148 0.883333 145.472 0.365952 142.759 0.176666C142.511 0.160766 142.265 0.127201 142.017 0.0935078C141.675 0.0468173 141.332 0 140.98 0H63.0952C49.1638 0 37.8571 11.3067 37.8571 25.2381V114.878C40.8658 114.027 44.0403 113.571 47.3214 113.571H56.7857V25.2381C56.7857 21.7679 59.6124 18.9286 63.0952 18.9286H138.81V75.7143C138.81 89.6457 150.116 100.952 164.048 100.952H220.833V227.143ZM157.738 33.0745L206.675 82.0238H164.048C160.565 82.0238 157.738 79.1845 157.738 75.7143V33.0745ZM25.2381 164.049H18.9286C8.47457 164.049 0 172.523 0 182.977V246.071C0 256.525 8.47457 265 18.9286 265H119.881C130.335 265 138.81 256.525 138.81 246.071V182.977C138.81 172.523 130.335 164.049 119.881 164.049H113.571V148.274C113.571 136.077 103.685 126.19 91.4885 126.19H47.3214C35.1251 126.19 25.2381 136.077 25.2381 148.274V164.049ZM44.1667 148.274C44.1667 146.531 45.5791 145.119 47.3214 145.119H91.4885C93.2308 145.119 94.6431 146.531 94.6431 148.274V164.049H44.1667V148.274Z" fill="url(#paint0_linear_42_298)" fill-opacity="0.21"/>
</g>
<defs>
<linearGradient id="paint0_linear_42_298" x1="3.17815e-07" y1="197.007" x2="232.631" y2="197.887" gradientUnits="userSpaceOnUse">
<stop stop-color="#6F036C"/>
<stop offset="1" stop-color="#FF6F61" stop-opacity="0.9"/>
</linearGradient>
</defs>
</svg>
