<svg width="217" height="257" viewBox="0 0 217 257" fill="none" xmlns="http://www.w3.org/2000/svg">
<g style="mix-blend-mode:hard-light">
<path d="M39.75 53C39.75 45.6823 45.6823 39.75 53 39.75H159C166.318 39.75 172.25 45.6823 172.25 53V79.5C172.25 86.8177 166.318 92.75 159 92.75H53C45.6823 92.75 39.75 86.8177 39.75 79.5V53ZM59.625 72.875H152.375V59.625H59.625V72.875ZM0 33.125C0 14.8306 14.8306 0 33.125 0H185.5C203.794 0 218.625 14.8306 218.625 33.125V221.938C218.625 227.426 214.176 231.875 208.688 231.875H19.875C19.875 239.193 25.8073 245.125 33.125 245.125H208.688C214.176 245.125 218.625 249.574 218.625 255.062C218.625 260.551 214.176 265 208.688 265H33.125C14.8306 265 0 250.169 0 231.875V33.125ZM19.875 212H198.75V33.125C198.75 25.8073 192.818 19.875 185.5 19.875H33.125C25.8073 19.875 19.875 25.8073 19.875 33.125V212Z" fill="url(#paint0_linear_42_296)" fill-opacity="0.21"/>
</g>
<defs>
<linearGradient id="paint0_linear_42_296" x1="2.89797e-07" y1="197.007" x2="212.123" y2="197.738" gradientUnits="userSpaceOnUse">
<stop stop-color="#6F036C"/>
<stop offset="1" stop-color="#FF6F61" stop-opacity="0.9"/>
</linearGradient>
</defs>
</svg>
