<svg width="301" height="257" viewBox="0 0 301 257" fill="none" xmlns="http://www.w3.org/2000/svg">
<g style="mix-blend-mode:hard-light">
<path d="M150.167 53C120.896 53 97.1667 76.729 97.1667 106C97.1667 135.272 120.896 159 150.167 159C179.439 159 203.167 135.272 203.167 106C203.167 76.729 179.439 53 150.167 53ZM123.667 106C123.667 91.3649 135.531 79.5 150.167 79.5C164.802 79.5 176.667 91.3649 176.667 106C176.667 120.635 164.802 132.5 150.167 132.5C135.531 132.5 123.667 120.635 123.667 106ZM0 39.75C0 17.7967 17.7967 0 39.75 0H260.583C282.536 0 300.333 17.7967 300.333 39.75V172.25C300.333 194.203 282.536 212 260.583 212H39.75C17.7967 212 0 194.203 0 172.25V39.75ZM39.75 26.5C32.4323 26.5 26.5 32.4323 26.5 39.75V53H39.75C47.0677 53 53 47.0677 53 39.75V26.5H39.75ZM26.5 132.5H39.75C61.7033 132.5 79.5 150.297 79.5 172.25V185.5H220.833V172.25C220.833 150.297 238.631 132.5 260.583 132.5H273.833V79.5H260.583C238.631 79.5 220.833 61.7033 220.833 39.75V26.5H79.5V39.75C79.5 61.7033 61.7033 79.5 39.75 79.5H26.5V132.5ZM273.833 53V39.75C273.833 32.4323 267.901 26.5 260.583 26.5H247.333V39.75C247.333 47.0677 253.266 53 260.583 53H273.833ZM273.833 159H260.583C253.266 159 247.333 164.932 247.333 172.25V185.5H260.583C267.901 185.5 273.833 179.568 273.833 172.25V159ZM26.5 172.25C26.5 179.568 32.4323 185.5 39.75 185.5H53V172.25C53 164.932 47.0677 159 39.75 159H26.5V172.25ZM42.4242 238.5C51.5881 254.342 68.7163 265 88.3337 265H269.417C315.763 265 353.333 227.43 353.333 181.083V88.3333C353.333 68.7163 342.675 51.5881 326.833 42.4242V181.083C326.833 212.793 301.127 238.5 269.417 238.5H42.4242Z" fill="url(#paint0_linear_42_302)" fill-opacity="0.21"/>
</g>
<defs>
<linearGradient id="paint0_linear_42_302" x1="4.68359e-07" y1="197.007" x2="342.819" y2="198.918" gradientUnits="userSpaceOnUse">
<stop stop-color="#6F036C"/>
<stop offset="1" stop-color="#FF6F61" stop-opacity="0.9"/>
</linearGradient>
</defs>
</svg>
