<svg width="285" height="257" viewBox="0 0 285 257" fill="none" xmlns="http://www.w3.org/2000/svg">
<g style="mix-blend-mode:hard-light">
<path d="M168.756 24.169L155.956 36.7733L143.115 24.1576C110.377 -8.00912 57.2967 -8.00912 24.558 24.1576C1.67947 46.6362 -5.21122 78.8749 3.88627 107.232H28.9192C18.649 85.2998 22.7095 58.4814 41.101 40.4115C64.7034 17.2214 102.97 17.2214 126.573 40.4115L147.744 61.2132C152.391 65.7779 159.95 65.6889 164.483 61.0163L185.3 40.4228C208.962 17.1743 247.254 17.1743 270.916 40.4228C289.318 58.5041 293.352 85.2693 283.061 107.232H308.099C317.217 78.8663 310.359 46.6679 287.459 24.169C254.661 -8.05632 201.555 -8.05632 168.756 24.169ZM147.701 261.634L45.142 160.867H75.7575C76.5528 160.867 77.3426 160.834 78.1252 160.768L155.972 237.254L233.766 160.867H266.864L164.244 261.634C159.676 266.122 152.269 266.122 147.701 261.634ZM115.741 67.613C113.74 63.6791 109.628 61.2128 105.152 61.2604C100.676 61.3079 96.62 63.8613 94.7052 67.8369L68.3504 122.557H11.6976C5.23727 122.557 0 127.703 0 134.05C0 140.397 5.23727 145.543 11.6976 145.543H75.7561C80.2782 145.543 84.3953 142.982 86.3297 138.966L105.568 99.0216L145.506 177.5C147.336 181.097 150.945 183.492 155.023 183.817C159.102 184.142 163.056 182.349 165.451 179.089L207.535 121.839L225.15 141.618C227.371 144.113 230.579 145.543 233.953 145.543H300.239C306.7 145.543 311.937 140.397 311.937 134.05C311.937 127.703 306.7 122.557 300.239 122.557H239.26L215.461 95.8326C213.115 93.1984 209.673 91.7574 206.112 91.9203C202.552 92.0843 199.262 93.8328 197.175 96.6724L157.793 150.248L115.741 67.613Z" fill="url(#paint0_linear_42_291)" fill-opacity="0.21"/>
</g>
<defs>
<linearGradient id="paint0_linear_42_291" x1="4.1357e-07" y1="197.007" x2="302.717" y2="198.497" gradientUnits="userSpaceOnUse">
<stop stop-color="#6F036C"/>
<stop offset="1" stop-color="#FF6F61" stop-opacity="0.9"/>
</linearGradient>
</defs>
</svg>
