<svg width="254" height="257" viewBox="0 0 254 257" fill="none" xmlns="http://www.w3.org/2000/svg">
<g style="mix-blend-mode:hard-light">
<path d="M0 11.3571C0 5.08482 5.08482 0 11.3571 0H19.8108C34.2036 0 42.8213 9.67613 47.7492 18.671C51.0339 24.6668 53.4101 31.621 55.2687 37.917C55.772 37.8774 56.2821 37.8571 56.7978 37.8571H246.043C258.614 37.8571 267.692 49.8869 264.246 61.9767L236.568 159.029C231.468 176.917 215.122 189.252 196.522 189.252H106.451C87.6965 189.252 71.2562 176.716 66.2929 158.631L54.7769 116.668L35.7181 52.3304L35.6872 52.2177C33.3294 43.6192 31.1166 35.5865 27.8285 29.5846C24.6353 23.7561 22.0899 22.7143 19.8108 22.7143H11.3571C5.08482 22.7143 0 17.6295 0 11.3571ZM76.8171 111.153L88.1971 152.619C90.4533 160.84 97.9261 166.538 106.451 166.538H196.522C204.977 166.538 212.406 160.931 214.726 152.801L241.026 60.5714H61.866L76.6086 110.343C76.6886 110.613 76.7579 110.882 76.8171 111.153ZM128.714 234.714C128.714 251.441 115.155 265 98.4286 265C81.7022 265 68.1429 251.441 68.1429 234.714C68.1429 217.987 81.7022 204.429 98.4286 204.429C115.155 204.429 128.714 217.987 128.714 234.714ZM106 234.714C106 230.533 102.61 227.143 98.4286 227.143C94.247 227.143 90.8571 230.533 90.8571 234.714C90.8571 238.895 94.247 242.286 98.4286 242.286C102.61 242.286 106 238.895 106 234.714ZM234.714 234.714C234.714 251.441 221.155 265 204.429 265C187.702 265 174.143 251.441 174.143 234.714C174.143 217.987 187.702 204.429 204.429 204.429C221.155 204.429 234.714 217.987 234.714 234.714ZM212 234.714C212 230.533 208.61 227.143 204.429 227.143C200.248 227.143 196.857 230.533 196.857 234.714C196.857 238.895 200.248 242.286 204.429 242.286C208.61 242.286 212 238.895 212 234.714Z" fill="url(#paint0_linear_42_300)" fill-opacity="0.21"/>
</g>
<defs>
<linearGradient id="paint0_linear_42_300" x1="3.51246e-07" y1="197.007" x2="257.101" y2="198.082" gradientUnits="userSpaceOnUse">
<stop stop-color="#6F036C"/>
<stop offset="1" stop-color="#FF6F61" stop-opacity="0.9"/>
</linearGradient>
</defs>
</svg>
