<svg width="221" height="257" viewBox="0 0 221 257" fill="none" xmlns="http://www.w3.org/2000/svg">
<g style="mix-blend-mode:hard-light">
<path d="M170.856 0C199.742 0 223.158 23.4164 223.158 52.3021V177.827C223.158 202.588 205.954 223.329 182.846 228.749L217.195 245.093C222.412 247.576 224.626 253.819 222.142 259.035C219.865 263.816 214.431 266.076 209.523 264.505L208.201 263.981L137.102 230.129H86.0411L14.9601 263.981C9.74414 266.465 3.50234 264.25 1.01861 259.035C-1.46525 253.819 0.749574 247.576 5.96556 245.093L40.3081 228.747C17.2044 223.325 0.00241571 202.585 0.00241571 177.827V52.3021C0.00241571 23.4164 23.4188 0 52.3045 0H170.856ZM202.235 153.42H20.9209L20.9233 177.827C20.9233 195.158 34.9732 209.209 52.3045 209.209H170.856C188.188 209.209 202.237 195.158 202.237 177.827L202.235 153.42ZM55.7914 167.367C63.4943 167.367 69.7386 173.611 69.7386 181.314C69.7386 189.017 63.4943 195.261 55.7914 195.261C48.0886 195.261 41.8441 189.017 41.8441 181.314C41.8441 173.611 48.0886 167.367 55.7914 167.367ZM167.369 167.367C175.072 167.367 181.316 173.611 181.316 181.314C181.316 189.017 175.072 195.261 167.369 195.261C159.666 195.261 153.422 189.017 153.422 181.314C153.422 173.611 159.666 167.367 167.369 167.367ZM170.856 20.9209H52.3045C34.9732 20.9209 20.9233 34.9707 20.9233 52.3021L20.9209 132.499H202.235L202.237 52.3021C202.237 34.9707 188.188 20.9209 170.856 20.9209ZM129.014 41.8417C134.791 41.8417 139.474 46.525 139.474 52.3021C139.474 58.0792 134.791 62.7626 129.014 62.7626H94.1458C88.3689 62.7626 83.6858 58.0792 83.6858 52.3021C83.6858 46.525 88.3689 41.8417 94.1458 41.8417H129.014Z" fill="url(#paint0_linear_42_304)" fill-opacity="0.21"/>
</g>
<defs>
<linearGradient id="paint0_linear_42_304" x1="2.9581e-07" y1="197.007" x2="216.524" y2="197.769" gradientUnits="userSpaceOnUse">
<stop stop-color="#6F036C"/>
<stop offset="1" stop-color="#FF6F61" stop-opacity="0.9"/>
</linearGradient>
</defs>
</svg>
